# xmcd
#
# Track frame offsets: 
#        153
#        13441
#        33238
#        50753
#        78123
#        96632
#        120285
#        131549
#        155291
#        171388
#        183352
#        200003
#        224655
#        239017
#        256656
#        272258
#        286985
#
# Disc length: 4016 seconds
#
# Revision: 0
# Processed by: cddbd v1.5.2PL0 Copyright (c) Steve Scherf et al.
# Submitted via: ExactAudioCopyFreeDBPlugin 1.0
#
DISCID=f50fae11
DTITLE=Earl, Ronnie - Deep Blues
DYEAR=1982
DGENRE=Blues
TTITLE0=Ronnie Johnnie
TTITLE1=I Smell Trouble
TTITLE2=She Winked Her Eye
TTITLE3=Baby Doll Blues
TTITLE4=Ridin' In The Moonlight
TTITLE5=My Home Is A Prison
TTITLE6=Sick And Tired
TTITLE7=I'll Take Care
TTITLE8=San Ho Zay (Smokin')
TTITLE9=You Give Me Nothing But The Blues
TTITLE10=Follow Your Heart
TTITLE11=Why Should I Feel So Bad?
TTITLE12=You've Got Me Wrong
TTITLE13=Narcolepsy (Mr. Earl Wakes Up Late!)
TTITLE14=Some Day, Some Way
TTITLE15=No More Chances
TTITLE16=Waitin' For My Chance
EXTD=
EXTT0=
EXTT1=
EXTT2=
EXTT3=
EXTT4=
EXTT5=
EXTT6=
EXTT7=
EXTT8=
EXTT9=
EXTT10=
EXTT11=
EXTT12=
EXTT13=
EXTT14=
EXTT15=
EXTT16=
PLAYORDER=
